<?xml version="1.0" standalone="no"?>
<!DOCTYPE svg PUBLIC "-//W3C//DTD SVG 20010904//EN"
 "http://www.w3.org/TR/2001/REC-SVG-20010904/DTD/svg10.dtd">
<svg version="1.0" xmlns="http://www.w3.org/2000/svg"
 width="500.000000pt" height="500.000000pt" viewBox="0 0 500.000000 500.000000"
 preserveAspectRatio="xMidYMid meet">

<g transform="translate(0.000000,500.000000) scale(0.100000,-0.100000)"
fill="#000000" stroke="none">
<path d="M1820 3351 l-105 -6 -52 -415 c-28 -228 -52 -416 -52 -418 -1 -1 -13
-7 -28 -13 -22 -8 -24 -12 -13 -19 18 -12 77 -13 84 -2 2 4 12 70 21 147 9 77
25 208 35 290 11 83 24 204 31 270 6 66 13 124 16 129 3 5 40 6 82 4 42 -3 82
-3 89 -1 13 5 17 44 5 41 -5 -1 -55 -4 -113 -7z"/>
<path d="M4000 3110 c0 -109 3 -141 13 -138 8 3 13 41 15 130 2 102 0 127 -13
138 -13 11 -15 -3 -15 -130z"/>
<path d="M3258 3226 c-16 -12 -18 -31 -18 -149 0 -116 2 -136 16 -141 9 -4 19
-5 21 -3 2 2 2 72 1 155 -3 141 -4 150 -20 138z"/>
<path d="M3913 3205 c-22 -9 -23 -15 -23 -137 0 -122 1 -128 20 -128 11 0 23
6 26 13 2 7 3 69 2 138 l-3 124 -22 -10z"/>
<path d="M3030 3175 c0 -8 -7 -29 -15 -47 -9 -19 -30 -159 -50 -321 -19 -158
-37 -292 -40 -297 -4 -6 -27 -10 -53 -10 -62 0 -43 -16 30 -24 49 -6 57 -5 61
11 13 46 29 161 42 308 9 88 20 187 25 220 20 126 23 175 11 175 -6 0 -11 -7
-11 -15z"/>
<path d="M3803 3164 c-21 -20 -23 -30 -23 -143 0 -90 3 -121 13 -121 34 1 38
15 35 151 l-3 134 -22 -21z"/>
<path d="M3350 3178 c0 -2 -2 -63 -3 -135 -2 -133 0 -143 34 -143 5 0 9 58 9
130 0 119 -2 130 -20 140 -11 6 -20 9 -20 8z"/>
<path d="M2626 3124 c-10 -25 -40 -68 -66 -97 l-47 -52 20 -138 c11 -75 24
-137 29 -137 11 0 10 145 -2 197 -10 42 -9 43 34 83 55 50 90 127 76 164 -13
36 -22 33 -44 -20z"/>
<path d="M3682 3138 c-8 -92 -13 -252 -8 -263 3 -8 13 -11 25 -8 20 5 21 12
21 154 0 135 -2 149 -17 149 -13 0 -19 -9 -21 -32z"/>
<path d="M3583 3137 c-22 -21 -23 -31 -23 -159 0 -127 1 -136 20 -141 11 -3
23 -1 26 4 4 7 3 324 -1 318 0 0 -10 -10 -22 -22z"/>
<path d="M3467 3133 c-16 -4 -17 -17 -15 -130 3 -120 4 -126 26 -134 l22 -8 0
139 c0 77 -3 139 -7 139 -5 -1 -16 -3 -26 -6z"/>
<path d="M4000 2440 c0 -178 6 -230 23 -186 3 7 6 97 7 200 1 161 -1 186 -15
186 -13 0 -15 -27 -15 -200z"/>
<path d="M3908 2603 c-16 -4 -18 -19 -18 -129 l0 -124 -30 0 -30 0 0 110 0
110 -25 -12 c-24 -11 -25 -14 -25 -110 l0 -98 -30 0 -30 0 0 85 c0 47 -3 85
-6 85 -3 0 -14 -5 -25 -10 -16 -9 -19 -22 -19 -85 0 -60 -3 -75 -15 -75 -8 0
-15 -1 -16 -2 0 -2 -6 -39 -14 -83 l-13 -80 -1 145 -1 145 -25 1 c-24 2 -25 0
-25 -62 l0 -64 -30 0 -30 0 0 80 c0 44 -4 80 -9 80 -5 0 -16 3 -25 6 -14 5
-16 -6 -16 -80 l0 -86 -30 0 -30 0 0 100 c0 82 -3 100 -15 100 -27 0 -28 -4
-26 -85 3 -100 -3 -115 -40 -115 l-29 0 0 119 c0 99 -3 120 -16 125 -9 3 -18
6 -20 6 -8 0 -4 -355 5 -369 7 -11 1 -49 -17 -101 -2 -8 -7 -33 -9 -55 -2 -22
-9 -44 -14 -49 -5 -6 -9 -19 -9 -30 0 -31 -42 -196 -50 -196 -14 0 -17 75 -14
293 2 137 0 226 -6 238 -10 17 -23 19 -144 19 -121 0 -134 -2 -138 -18 -3 -11
1 -79 9 -153 7 -74 18 -204 23 -289 5 -85 11 -171 14 -190 3 -19 10 -109 17
-200 6 -91 13 -174 14 -185 2 -11 4 -23 4 -27 1 -5 6 -8 12 -8 6 0 22 -9 36
-20 23 -18 41 -20 148 -20 105 0 124 2 138 18 10 10 17 23 17 29 0 6 54 172
119 369 120 362 125 381 90 404 -4 3 10 59 31 125 l39 120 0 -84 c1 -66 4 -82
13 -73 7 7 18 12 26 12 10 0 12 -15 7 -72 -7 -76 -30 -282 -46 -403 -5 -38
-12 -99 -15 -135 -4 -36 -10 -67 -15 -70 -4 -3 -8 -43 -9 -90 -3 -110 -3 -110
15 -110 8 0 23 -9 33 -20 17 -19 29 -20 133 -18 l114 3 12 50 c6 28 21 138 33
245 12 107 30 258 41 335 10 77 23 174 28 215 11 95 15 520 4 519 -4 -1 -16
-3 -25 -6z m-439 -597 c-9 -8 -10 -7 -5 7 3 10 7 24 7 30 1 7 3 4 6 -7 3 -10
-1 -23 -8 -30z"/>
<path d="M2175 2511 c-4 -7 -50 -11 -116 -11 -60 0 -109 -4 -109 -9 0 -15 39
-20 153 -20 105 -1 108 0 105 21 -3 24 -23 35 -33 19z"/>
<path d="M2357 2349 c-60 -14 -117 -48 -166 -98 -69 -71 -91 -145 -116 -391
-8 -74 -19 -166 -24 -205 -17 -115 -14 -179 12 -232 22 -49 68 -103 85 -103 5
0 15 -7 23 -16 12 -14 65 -42 114 -59 11 -3 55 -6 97 -6 110 1 171 27 251 104
88 86 87 82 147 562 16 124 12 214 -10 261 -29 60 -116 142 -179 170 -57 26
-157 31 -234 13z m112 -263 c13 -15 4 -132 -25 -321 -8 -55 -17 -126 -21 -157
-7 -68 -36 -104 -77 -94 -30 7 -33 22 -24 111 4 39 12 111 17 160 16 143 29
207 49 229 11 12 27 36 38 54 20 36 26 38 43 18z"/>
<path d="M1280 2296 c0 -29 -11 -143 -26 -252 -14 -110 -29 -237 -35 -284 -5
-46 -16 -132 -24 -190 -34 -255 -36 -286 -18 -283 7 2 20 -8 29 -22 16 -24 20
-25 134 -25 82 0 121 4 128 13 5 6 15 57 21 112 6 55 16 136 21 180 22 168 26
231 17 265 -5 19 -11 52 -14 73 -8 60 15 45 52 -35 37 -78 80 -122 96 -97 13
21 11 39 -6 39 -8 0 -15 3 -15 6 0 14 61 112 81 130 l21 19 -7 -35 c-4 -19 -9
-59 -10 -90 -1 -30 -7 -89 -13 -130 -6 -41 -18 -136 -27 -210 -9 -74 -18 -148
-20 -163 -4 -22 0 -29 19 -37 13 -4 26 -16 29 -24 5 -13 27 -16 131 -16 l124
0 13 73 c8 44 12 144 11 257 -2 158 4 262 23 405 2 17 6 53 10 80 8 64 45 185
56 185 5 0 9 16 9 36 0 21 -4 33 -10 29 -5 -3 -15 5 -22 19 -11 26 -12 26
-135 26 l-123 0 -38 -56 c-20 -31 -46 -71 -57 -89 -25 -41 -45 -65 -55 -65
-10 0 -30 48 -30 74 0 13 -17 49 -37 80 l-37 56 -133 0 -133 0 0 -54z"/>
</g>
</svg>
